<svg id="svg" version="1.1" xmlns="http://www.w3.org/2000/svg" xmlns:xlink="http://www.w3.org/1999/xlink" width="400" height="447.05882352941177" viewBox="0, 0, 400,447.05882352941177"><g id="svgg"><path id="path0" d="M305.636 87.554 C 304.918 88.058,304.248 88.541,304.145 88.628 C 304.043 88.715,303.204 89.328,302.282 89.991 C 301.360 90.654,300.512 91.280,300.397 91.383 C 300.283 91.485,299.372 92.156,298.372 92.874 C 297.373 93.591,296.281 94.408,295.947 94.690 C 295.613 94.972,295.246 95.203,295.131 95.203 C 295.017 95.203,294.923 95.271,294.923 95.355 C 294.923 95.484,292.715 97.146,291.782 97.718 C 291.526 97.874,290.502 98.621,289.800 99.162 C 289.191 99.631,288.067 100.454,286.809 101.351 C 286.019 101.914,285.278 102.461,285.164 102.565 C 284.927 102.780,281.978 104.912,280.856 105.679 C 280.447 105.959,279.818 106.441,279.460 106.750 C 279.101 107.059,278.751 107.312,278.681 107.312 C 278.612 107.312,278.438 107.430,278.295 107.573 C 278.152 107.716,277.203 108.430,276.186 109.159 C 273.842 110.840,271.059 112.857,270.250 113.461 C 269.907 113.717,268.475 114.765,267.068 115.789 C 264.680 117.529,263.350 118.500,260.179 120.820 C 259.478 121.332,258.000 122.422,256.894 123.242 C 255.789 124.061,254.241 125.193,253.456 125.757 C 252.245 126.626,245.464 131.614,244.900 132.051 C 244.712 132.196,243.057 133.419,239.311 136.181 C 238.184 137.012,236.633 138.142,235.864 138.693 C 235.095 139.243,234.283 139.849,234.058 140.038 C 233.833 140.227,232.885 140.927,231.951 141.593 C 231.017 142.259,229.818 143.144,229.286 143.560 C 228.754 143.976,227.564 144.848,226.642 145.497 C 225.720 146.147,224.937 146.750,224.903 146.837 C 224.869 146.924,224.758 146.996,224.658 146.996 C 224.557 146.996,224.165 147.245,223.788 147.550 C 223.411 147.855,222.012 148.899,220.680 149.870 C 218.132 151.728,216.039 153.272,215.561 153.646 C 215.405 153.769,213.600 155.092,211.551 156.587 C 209.502 158.082,207.448 159.591,206.986 159.942 C 206.158 160.571,202.802 163.052,200.093 165.036 C 199.325 165.600,198.235 166.409,197.671 166.835 C 197.108 167.261,196.269 167.867,195.808 168.182 C 195.347 168.497,194.718 168.973,194.411 169.240 C 194.103 169.507,193.797 169.725,193.730 169.725 C 193.663 169.725,193.243 170.024,192.798 170.389 C 192.353 170.754,191.863 171.154,191.709 171.278 C 191.556 171.402,190.843 171.919,190.126 172.426 C 189.046 173.189,187.858 174.066,186.772 174.902 C 186.670 174.981,185.538 175.825,184.257 176.779 C 181.429 178.884,181.582 178.766,180.409 179.739 C 179.884 180.175,179.403 180.531,179.341 180.531 C 179.278 180.531,179.072 180.678,178.882 180.857 C 178.457 181.259,178.125 181.520,176.708 182.561 C 174.825 183.945,174.569 184.241,174.569 185.041 C 174.569 185.684,174.611 185.746,174.988 185.664 C 175.219 185.614,176.623 185.484,178.109 185.375 C 179.595 185.266,181.800 185.096,183.008 184.997 C 184.217 184.899,187.068 184.694,189.343 184.542 C 193.595 184.259,195.633 184.098,201.118 183.614 C 202.860 183.461,205.291 183.247,206.521 183.140 C 207.750 183.033,209.679 182.863,210.806 182.763 C 213.514 182.522,219.751 182.029,228.412 181.371 C 232.928 181.027,236.254 180.760,239.031 180.519 C 240.210 180.416,242.632 180.209,244.413 180.058 C 246.195 179.907,248.584 179.699,249.723 179.597 C 251.844 179.408,268.718 178.086,273.405 177.742 C 274.839 177.637,277.103 177.466,278.435 177.361 C 279.767 177.256,282.660 177.048,284.863 176.899 C 293.019 176.345,294.509 176.240,296.786 176.062 C 303.107 175.568,307.468 175.299,307.703 175.388 C 307.966 175.490,308.023 115.090,307.778 94.551 C 307.670 85.460,307.838 86.008,305.636 87.554 M174.625 193.014 C 174.625 193.577,174.660 193.808,174.703 193.526 C 174.745 193.244,174.745 192.783,174.703 192.501 C 174.660 192.219,174.625 192.450,174.625 193.014 M174.627 205.403 C 174.628 206.018,174.663 206.247,174.704 205.912 C 174.746 205.577,174.745 205.074,174.702 204.794 C 174.660 204.514,174.626 204.788,174.627 205.403 M174.383 274.975 C 174.383 275.475,175.191 276.131,181.187 280.494 C 181.461 280.694,181.992 281.095,182.366 281.386 C 182.740 281.677,183.298 282.110,183.605 282.348 C 183.912 282.587,185.170 283.528,186.400 284.440 C 187.629 285.351,189.767 286.937,191.150 287.963 C 192.534 288.990,194.714 290.601,195.994 291.545 C 197.275 292.488,198.868 293.671,199.534 294.174 C 200.200 294.676,201.626 295.741,202.701 296.540 C 203.777 297.338,204.700 298.035,204.751 298.088 C 204.802 298.140,204.976 298.267,205.138 298.370 C 205.630 298.681,207.163 299.812,208.294 300.699 C 208.883 301.160,209.551 301.663,209.778 301.816 C 210.231 302.123,210.224 302.117,215.184 305.832 C 217.080 307.251,219.176 308.817,219.842 309.311 C 220.508 309.805,221.598 310.623,222.264 311.128 C 222.930 311.633,224.271 312.640,225.245 313.365 C 226.218 314.090,227.140 314.788,227.294 314.915 C 227.448 315.042,228.160 315.561,228.878 316.067 C 229.595 316.573,230.224 317.035,230.275 317.094 C 230.326 317.152,230.955 317.612,231.672 318.117 C 232.389 318.621,233.087 319.143,233.223 319.275 C 233.359 319.408,233.862 319.783,234.341 320.108 C 235.083 320.612,239.105 323.565,239.963 324.236 C 240.116 324.357,240.851 324.896,241.595 325.435 C 242.339 325.975,243.093 326.535,243.272 326.682 C 243.450 326.828,244.141 327.347,244.807 327.837 C 245.473 328.326,246.060 328.771,246.111 328.825 C 246.349 329.078,247.779 330.135,247.882 330.135 C 247.947 330.135,248.449 330.491,248.999 330.927 C 249.550 331.362,250.303 331.928,250.675 332.184 C 251.046 332.441,251.449 332.737,251.571 332.844 C 251.851 333.088,256.043 336.201,259.339 338.613 C 260.722 339.625,261.896 340.504,261.947 340.565 C 261.998 340.626,263.129 341.469,264.461 342.439 C 265.792 343.408,268.936 345.738,271.447 347.616 C 273.958 349.494,276.223 351.187,276.479 351.378 C 276.735 351.569,277.573 352.187,278.342 352.750 C 279.110 353.314,279.829 353.853,279.939 353.949 C 280.050 354.044,280.595 354.447,281.150 354.844 C 281.706 355.241,282.287 355.667,282.441 355.791 C 282.843 356.115,283.978 356.965,284.903 357.634 C 285.342 357.952,287.420 359.454,289.520 360.972 C 291.621 362.491,294.429 364.542,295.762 365.531 C 303.827 371.518,306.813 373.492,307.102 373.025 C 307.245 372.794,307.391 368.383,307.514 360.604 C 307.577 356.612,307.655 353.209,307.687 353.043 C 307.719 352.877,307.806 337.486,307.882 318.840 L 308.019 284.938 303.474 284.530 C 300.974 284.305,296.917 283.993,294.457 283.837 C 291.998 283.680,289.022 283.472,287.844 283.374 C 286.665 283.276,284.569 283.109,283.186 283.003 C 279.949 282.753,274.212 282.302,271.355 282.072 C 268.858 281.871,265.166 281.595,261.388 281.329 C 258.683 281.138,245.707 280.153,241.733 279.836 C 240.401 279.730,237.634 279.514,235.585 279.357 C 233.535 279.200,229.930 278.911,227.573 278.714 C 222.530 278.295,217.160 277.880,213.135 277.600 C 207.010 277.173,200.099 276.657,198.137 276.480 C 192.867 276.005,184.455 275.375,178.202 274.988 C 176.358 274.874,174.744 274.746,174.616 274.704 C 174.485 274.661,174.383 274.780,174.383 274.975 " stroke="none" fill="#7bcb04" fill-rule="evenodd"></path><path id="path1" d="M167.024 85.612 C 162.024 86.040,156.644 87.178,152.010 88.789 C 150.256 89.398,149.479 89.700,147.089 90.699 C 145.215 91.483,141.282 93.496,139.203 94.737 C 136.887 96.118,132.534 98.977,132.278 99.285 C 132.226 99.346,131.681 99.768,131.067 100.223 C 125.191 104.567,118.032 111.760,112.420 118.957 C 106.030 127.153,98.568 139.932,94.704 149.294 C 94.444 149.926,94.075 150.778,93.885 151.188 C 93.131 152.813,91.371 157.377,89.683 162.087 C 88.368 165.753,85.819 174.093,85.923 174.385 C 85.954 174.474,87.825 173.726,90.079 172.723 C 94.972 170.545,100.185 168.258,104.891 166.226 C 110.873 163.641,144.408 149.298,148.728 147.476 C 151.003 146.517,155.547 144.600,158.826 143.216 C 162.105 141.832,166.926 139.799,169.539 138.699 C 172.152 137.599,174.345 136.647,174.412 136.584 C 174.791 136.230,174.675 85.688,174.295 85.613 C 173.284 85.413,169.354 85.413,167.024 85.612 M174.324 140.056 C 174.280 140.133,174.311 140.363,174.393 140.568 C 174.524 140.894,174.545 140.876,174.556 140.429 C 174.569 139.923,174.482 139.783,174.324 140.056 M174.430 141.686 C 174.432 142.096,174.470 142.242,174.515 142.010 C 174.559 141.778,174.557 141.443,174.511 141.265 C 174.464 141.087,174.428 141.276,174.430 141.686 M85.410 175.991 C 85.342 176.285,85.006 177.657,84.663 179.041 C 83.864 182.265,83.304 184.643,83.089 185.727 C 82.805 187.155,82.737 187.482,82.541 188.356 C 81.717 192.021,80.076 202.744,79.648 207.266 C 79.589 207.881,79.504 208.635,79.458 208.943 C 78.571 214.847,78.060 232.318,78.493 241.919 C 78.733 247.219,79.381 255.224,79.829 258.407 C 79.880 258.766,79.963 259.436,80.014 259.898 C 80.274 262.243,80.364 262.647,80.475 261.971 C 80.576 261.350,80.621 261.324,83.931 259.952 C 92.411 256.435,106.424 250.904,119.236 246.015 C 125.953 243.452,131.944 241.160,153.796 232.794 C 159.329 230.676,164.884 228.551,166.139 228.072 C 168.724 227.087,168.701 227.111,167.629 226.507 C 149.569 216.330,86.582 179.357,85.381 178.228 C 85.203 178.060,85.213 177.758,85.431 176.824 C 85.584 176.169,85.670 175.593,85.621 175.545 C 85.572 175.496,85.477 175.697,85.410 175.991 M174.651 199.162 C 174.651 202.082,174.677 203.277,174.708 201.816 C 174.740 200.356,174.740 197.967,174.708 196.507 C 174.677 195.047,174.651 196.241,174.651 199.162 M174.462 221.146 C 174.462 223.349,174.489 224.250,174.522 223.149 C 174.555 222.047,174.555 220.245,174.522 219.143 C 174.489 218.041,174.462 218.943,174.462 221.146 M174.454 228.319 C 174.454 229.548,174.485 230.027,174.521 229.383 C 174.557 228.738,174.557 227.732,174.520 227.147 C 174.483 226.562,174.454 227.089,174.454 228.319 M174.459 234.374 C 174.459 236.167,174.487 236.900,174.522 236.004 C 174.556 235.107,174.556 233.640,174.522 232.743 C 174.487 231.847,174.459 232.580,174.459 234.374 M80.764 265.225 C 80.833 265.727,81.055 267.103,81.257 268.281 C 81.459 269.460,81.708 270.927,81.810 271.542 C 82.071 273.114,82.835 276.855,83.350 279.087 C 84.721 285.028,84.550 284.352,85.966 289.427 C 86.338 290.759,86.767 292.310,86.919 292.874 C 87.071 293.437,87.268 294.066,87.356 294.271 C 87.444 294.476,87.963 296.027,88.509 297.718 C 90.768 304.704,93.522 311.476,96.906 318.368 C 99.706 324.071,101.052 326.484,104.806 332.534 C 105.551 333.735,109.513 339.465,109.718 339.637 C 109.779 339.688,110.205 340.233,110.664 340.848 C 119.765 353.018,131.458 362.558,144.445 368.409 C 148.126 370.067,155.192 372.151,159.018 372.707 C 163.302 373.329,164.363 373.405,169.006 373.420 C 172.857 373.433,174.036 373.382,174.266 373.192 C 174.533 372.970,174.559 370.324,174.533 345.135 L 174.505 317.322 174.025 317.041 C 171.180 315.375,130.484 292.540,120.261 286.874 C 101.655 276.561,81.452 265.123,80.942 264.613 C 80.663 264.334,80.649 264.381,80.764 265.225 " stroke="none" fill="#d4041c" fill-rule="evenodd"></path><path id="path2" d="M306.381 175.429 C 306.176 175.465,304.164 175.626,301.910 175.788 C 299.655 175.950,296.721 176.161,295.389 176.257 C 294.057 176.353,291.122 176.556,288.868 176.708 C 283.971 177.038,280.411 177.294,277.131 177.551 C 274.792 177.734,269.573 178.126,264.741 178.480 C 262.662 178.632,260.007 178.844,253.004 179.414 C 251.826 179.510,249.856 179.678,248.626 179.787 C 241.017 180.459,233.082 181.110,225.897 181.650 C 224.462 181.758,222.282 181.929,221.053 182.029 C 219.823 182.130,217.266 182.334,215.370 182.483 C 213.475 182.632,210.918 182.843,209.688 182.952 C 208.458 183.060,206.027 183.274,204.285 183.428 C 201.283 183.693,199.408 183.854,194.532 184.264 C 193.370 184.362,190.561 184.567,188.291 184.719 C 184.176 184.995,181.508 185.197,177.271 185.553 C 176.041 185.657,174.951 185.743,174.849 185.745 C 174.725 185.747,174.637 200.728,174.588 230.160 L 174.514 274.573 175.613 274.687 C 176.217 274.750,178.011 274.885,179.599 274.988 C 187.260 275.485,191.258 275.779,196.088 276.204 C 201.317 276.663,205.851 277.016,211.551 277.408 C 217.617 277.825,220.427 278.036,225.431 278.448 C 230.954 278.904,239.282 279.564,242.944 279.836 C 245.603 280.034,251.578 280.491,255.147 280.770 C 256.479 280.874,258.701 281.041,260.084 281.142 C 263.985 281.426,269.802 281.862,272.473 282.072 C 273.805 282.176,275.985 282.346,277.317 282.449 C 278.649 282.551,281.290 282.762,283.186 282.917 C 287.129 283.239,289.746 283.432,295.668 283.837 C 297.974 283.994,300.866 284.217,302.096 284.331 C 303.326 284.445,305.149 284.590,306.148 284.654 L 307.965 284.769 307.962 284.117 C 307.958 283.283,307.933 283.251,306.381 282.098 C 305.664 281.565,304.986 281.057,304.875 280.968 C 304.680 280.813,301.241 278.264,297.811 275.731 C 296.889 275.050,295.296 273.894,294.271 273.162 C 291.058 270.865,284.964 266.452,284.765 266.277 C 284.659 266.184,284.324 265.950,284.019 265.756 C 283.715 265.561,283.423 265.353,283.372 265.293 C 283.321 265.233,281.854 264.164,280.112 262.917 C 278.370 261.671,274.807 259.114,272.194 257.237 C 269.581 255.359,264.802 251.925,261.574 249.607 C 258.347 247.288,255.622 245.319,255.519 245.232 C 255.417 245.144,253.698 243.905,251.700 242.478 C 248.353 240.087,246.677 238.877,246.204 238.509 C 245.834 238.221,239.972 234.008,239.215 233.486 C 237.619 232.385,235.300 230.590,235.376 230.514 C 235.488 230.403,243.280 224.748,246.670 222.320 C 248.053 221.328,252.150 218.374,255.775 215.755 C 259.399 213.135,264.056 209.776,266.125 208.291 C 269.609 205.788,273.077 203.263,277.960 199.673 C 279.041 198.878,281.686 196.953,283.838 195.395 C 287.893 192.459,292.015 189.439,292.501 189.047 C 292.655 188.923,293.235 188.497,293.791 188.100 C 294.347 187.703,294.892 187.305,295.002 187.217 C 295.112 187.128,296.712 185.908,298.556 184.505 C 302.093 181.815,305.642 178.997,307.018 177.786 C 307.845 177.058,307.894 176.911,307.747 175.594 C 307.717 175.324,307.290 175.273,306.381 175.429 " stroke="none" fill="#046c2c" fill-rule="evenodd"></path><path id="path3" d="M186.843 131.377 C 186.831 131.514,186.838 131.709,186.858 131.810 C 186.879 131.912,186.906 132.142,186.920 132.322 C 186.977 133.079,187.395 132.512,187.354 131.733 C 187.330 131.261,186.881 130.949,186.843 131.377 M172.147 137.575 C 169.685 138.631,165.297 140.487,155.380 144.666 C 143.629 149.618,105.465 165.953,97.811 169.306 C 87.182 173.964,85.982 174.532,85.921 174.931 C 85.886 175.157,85.775 175.267,85.656 175.193 C 85.524 175.112,85.494 175.179,85.573 175.383 C 85.639 175.557,85.572 176.220,85.424 176.857 C 85.212 177.766,85.203 178.060,85.381 178.228 C 86.582 179.357,149.569 216.330,167.629 226.507 C 168.701 227.111,168.724 227.087,166.139 228.072 C 164.884 228.551,159.329 230.676,153.796 232.794 C 131.944 241.160,125.953 243.452,119.236 246.015 C 106.398 250.913,92.339 256.464,83.932 259.952 L 80.580 261.343 80.442 262.151 C 80.360 262.628,80.379 263.034,80.487 263.142 C 80.588 263.243,80.671 263.554,80.671 263.834 C 80.671 264.114,80.800 264.471,80.957 264.629 C 81.452 265.124,101.924 276.711,120.261 286.874 C 131.998 293.379,172.890 316.334,173.957 317.016 C 174.184 317.161,174.416 317.280,174.472 317.280 C 174.529 317.280,174.553 294.748,174.526 267.210 C 174.498 239.672,174.508 200.750,174.548 180.717 C 174.614 147.551,174.569 140.741,174.286 140.282 C 174.233 140.198,174.265 140.082,174.355 140.026 C 174.501 139.936,174.674 136.552,174.532 136.569 C 174.501 136.573,173.428 137.026,172.147 137.575 " stroke="none" fill="#fb043b" fill-rule="evenodd"></path><path id="path4" d="M303.260 175.632 C 303.491 175.677,303.868 175.677,304.099 175.632 C 304.329 175.588,304.141 175.551,303.680 175.551 C 303.218 175.551,303.030 175.588,303.260 175.632 M300.652 175.818 C 300.883 175.863,301.260 175.863,301.490 175.818 C 301.721 175.774,301.532 175.738,301.071 175.738 C 300.610 175.738,300.422 175.774,300.652 175.818 M295.904 176.193 C 296.187 176.236,296.606 176.235,296.835 176.191 C 297.064 176.147,296.833 176.112,296.320 176.113 C 295.808 176.114,295.621 176.150,295.904 176.193 M290.498 176.566 C 290.780 176.608,291.241 176.608,291.523 176.566 C 291.805 176.523,291.574 176.488,291.011 176.488 C 290.447 176.488,290.217 176.523,290.498 176.566 M285.095 176.933 C 285.275 176.980,285.568 176.980,285.748 176.933 C 285.927 176.886,285.780 176.848,285.422 176.848 C 285.063 176.848,284.916 176.886,285.095 176.933 M282.303 177.125 C 282.587 177.168,283.006 177.167,283.235 177.122 C 283.464 177.078,283.232 177.043,282.720 177.044 C 282.208 177.046,282.020 177.082,282.303 177.125 M277.364 177.495 C 277.594 177.540,277.972 177.540,278.202 177.495 C 278.433 177.451,278.244 177.415,277.783 177.415 C 277.322 177.415,277.133 177.451,277.364 177.495 M272.520 177.868 C 272.750 177.912,273.128 177.912,273.358 177.868 C 273.589 177.823,273.400 177.787,272.939 177.787 C 272.478 177.787,272.289 177.823,272.520 177.868 M269.912 178.054 C 270.142 178.099,270.519 178.099,270.750 178.054 C 270.980 178.010,270.792 177.973,270.331 177.973 C 269.870 177.973,269.681 178.010,269.912 178.054 M265.068 178.427 C 265.298 178.471,265.675 178.471,265.906 178.427 C 266.136 178.382,265.948 178.346,265.487 178.346 C 265.026 178.346,264.837 178.382,265.068 178.427 M260.226 178.800 C 260.457 178.844,260.793 178.843,260.971 178.796 C 261.149 178.749,260.959 178.713,260.550 178.715 C 260.140 178.717,259.994 178.755,260.226 178.800 M257.895 178.983 C 258.074 179.030,258.367 179.030,258.547 178.983 C 258.726 178.936,258.579 178.897,258.221 178.897 C 257.862 178.897,257.715 178.936,257.895 178.983 M255.473 179.169 C 255.652 179.216,255.946 179.216,256.125 179.169 C 256.304 179.122,256.157 179.084,255.799 179.084 C 255.440 179.084,255.293 179.122,255.473 179.169 M253.144 179.358 C 253.374 179.403,253.752 179.403,253.982 179.358 C 254.213 179.314,254.024 179.278,253.563 179.278 C 253.102 179.278,252.913 179.314,253.144 179.358 M248.861 179.731 C 249.093 179.776,249.428 179.774,249.606 179.727 C 249.784 179.681,249.595 179.644,249.185 179.646 C 248.775 179.648,248.629 179.687,248.861 179.731 M244.576 180.104 C 244.808 180.148,245.143 180.147,245.321 180.100 C 245.499 180.053,245.310 180.017,244.900 180.019 C 244.490 180.021,244.344 180.059,244.576 180.104 M242.340 180.290 C 242.572 180.335,242.907 180.333,243.086 180.286 C 243.264 180.240,243.074 180.203,242.664 180.205 C 242.254 180.207,242.109 180.246,242.340 180.290 M238.055 180.663 C 238.287 180.707,238.622 180.706,238.800 180.659 C 238.979 180.612,238.789 180.576,238.379 180.578 C 237.969 180.580,237.824 180.618,238.055 180.663 M233.395 181.035 C 233.626 181.079,234.003 181.079,234.234 181.035 C 234.464 180.991,234.276 180.954,233.815 180.954 C 233.354 180.954,233.165 180.991,233.395 181.035 M228.645 181.405 C 228.824 181.451,229.117 181.451,229.297 181.405 C 229.476 181.358,229.329 181.319,228.971 181.319 C 228.612 181.319,228.465 181.358,228.645 181.405 M226.129 181.594 C 226.360 181.638,226.737 181.638,226.968 181.594 C 227.198 181.550,227.010 181.513,226.549 181.513 C 226.088 181.513,225.899 181.550,226.129 181.594 M221.286 181.967 C 221.516 182.011,221.893 182.011,222.124 181.967 C 222.354 181.922,222.166 181.886,221.705 181.886 C 221.244 181.886,221.055 181.922,221.286 181.967 M216.628 182.339 C 216.858 182.384,217.236 182.384,217.466 182.339 C 217.697 182.295,217.508 182.258,217.047 182.258 C 216.586 182.258,216.397 182.295,216.628 182.339 M214.206 182.526 C 214.436 182.570,214.814 182.570,215.044 182.526 C 215.275 182.481,215.086 182.445,214.625 182.445 C 214.164 182.445,213.975 182.481,214.206 182.526 M209.923 182.898 C 210.155 182.943,210.490 182.941,210.668 182.895 C 210.846 182.848,210.657 182.812,210.247 182.814 C 209.837 182.816,209.691 182.854,209.923 182.898 M205.638 183.271 C 205.870 183.316,206.205 183.314,206.383 183.267 C 206.561 183.221,206.372 183.184,205.962 183.186 C 205.552 183.188,205.406 183.226,205.638 183.271 M199.304 183.830 C 199.535 183.875,199.871 183.873,200.049 183.826 C 200.227 183.780,200.037 183.743,199.627 183.745 C 199.218 183.747,199.072 183.785,199.304 183.830 M194.830 184.202 C 195.061 184.247,195.438 184.247,195.668 184.202 C 195.899 184.158,195.710 184.122,195.249 184.122 C 194.788 184.122,194.599 184.158,194.830 184.202 M189.895 184.577 C 190.179 184.620,190.598 184.619,190.827 184.575 C 191.056 184.530,190.824 184.495,190.312 184.497 C 189.800 184.498,189.612 184.534,189.895 184.577 M186.915 184.763 C 187.198 184.806,187.617 184.805,187.846 184.761 C 188.075 184.717,187.844 184.682,187.331 184.683 C 186.819 184.684,186.631 184.721,186.915 184.763 M181.975 185.134 C 182.205 185.178,182.583 185.178,182.813 185.134 C 183.044 185.089,182.855 185.053,182.394 185.053 C 181.933 185.053,181.744 185.089,181.975 185.134 M177.317 185.506 C 177.548 185.551,177.925 185.551,178.156 185.506 C 178.386 185.462,178.197 185.426,177.736 185.426 C 177.275 185.426,177.087 185.462,177.317 185.506 M174.642 189.660 C 174.642 191.043,174.671 191.609,174.707 190.918 C 174.743 190.226,174.743 189.094,174.707 188.402 C 174.671 187.711,174.642 188.277,174.642 189.660 M174.650 210.992 C 174.650 213.554,174.676 214.628,174.708 213.378 C 174.740 212.129,174.741 210.033,174.708 208.721 C 174.676 207.408,174.650 208.430,174.650 210.992 M174.475 256.917 L 174.476 274.709 175.128 274.733 C 175.779 274.757,175.779 274.757,175.176 274.675 L 174.571 274.592 174.522 256.858 L 174.473 239.124 174.475 256.917 M177.131 274.934 C 177.361 274.978,177.739 274.978,177.969 274.934 C 178.200 274.889,178.011 274.853,177.550 274.853 C 177.089 274.853,176.900 274.889,177.131 274.934 M180.021 275.122 C 180.304 275.165,180.724 275.164,180.953 275.120 C 181.182 275.075,180.950 275.040,180.438 275.042 C 179.925 275.043,179.738 275.079,180.021 275.122 M185.610 275.495 C 185.894 275.537,186.313 275.536,186.542 275.492 C 186.771 275.448,186.539 275.413,186.027 275.414 C 185.515 275.416,185.327 275.452,185.610 275.495 M190.545 275.865 C 190.776 275.909,191.153 275.909,191.383 275.865 C 191.614 275.821,191.425 275.784,190.964 275.784 C 190.503 275.784,190.314 275.821,190.545 275.865 M192.969 276.052 C 193.201 276.096,193.536 276.095,193.714 276.048 C 193.892 276.001,193.703 275.965,193.293 275.967 C 192.883 275.969,192.737 276.007,192.969 276.052 M197.252 276.424 C 197.483 276.468,197.860 276.468,198.090 276.424 C 198.321 276.380,198.132 276.343,197.671 276.343 C 197.210 276.343,197.021 276.380,197.252 276.424 M201.537 276.797 C 201.768 276.841,202.145 276.841,202.375 276.797 C 202.606 276.752,202.417 276.716,201.956 276.716 C 201.495 276.716,201.306 276.752,201.537 276.797 M204.052 276.980 C 204.231 277.027,204.525 277.027,204.704 276.980 C 204.884 276.933,204.737 276.895,204.378 276.895 C 204.020 276.895,203.873 276.933,204.052 276.980 M206.569 277.169 C 206.801 277.214,207.137 277.212,207.315 277.166 C 207.493 277.119,207.303 277.083,206.893 277.085 C 206.483 277.087,206.338 277.125,206.569 277.169 M209.176 277.356 C 209.406 277.400,209.783 277.400,210.014 277.356 C 210.245 277.311,210.056 277.275,209.595 277.275 C 209.134 277.275,208.945 277.311,209.176 277.356 M214.674 277.730 C 214.957 277.773,215.377 277.772,215.606 277.728 C 215.835 277.684,215.603 277.649,215.091 277.650 C 214.578 277.651,214.391 277.688,214.674 277.730 M219.797 278.101 C 220.029 278.146,220.364 278.144,220.542 278.097 C 220.721 278.051,220.531 278.014,220.121 278.016 C 219.711 278.018,219.565 278.056,219.797 278.101 M222.124 278.284 C 222.303 278.331,222.597 278.331,222.776 278.284 C 222.955 278.237,222.809 278.199,222.450 278.199 C 222.091 278.199,221.945 278.237,222.124 278.284 M226.688 278.660 C 226.919 278.704,227.296 278.704,227.527 278.660 C 227.757 278.615,227.569 278.579,227.108 278.579 C 226.646 278.579,226.458 278.615,226.688 278.660 M231.160 279.032 C 231.390 279.077,231.768 279.077,231.998 279.032 C 232.229 278.988,232.040 278.952,231.579 278.952 C 231.118 278.952,230.929 278.988,231.160 279.032 M233.489 279.216 C 233.668 279.262,233.961 279.262,234.141 279.216 C 234.320 279.169,234.173 279.130,233.815 279.130 C 233.456 279.130,233.309 279.169,233.489 279.216 M235.911 279.402 C 236.090 279.449,236.383 279.449,236.563 279.402 C 236.742 279.355,236.595 279.317,236.237 279.317 C 235.878 279.317,235.731 279.355,235.911 279.402 M238.239 279.591 C 238.470 279.636,238.847 279.636,239.078 279.591 C 239.308 279.547,239.120 279.510,238.659 279.510 C 238.197 279.510,238.009 279.547,238.239 279.591 M243.179 279.966 C 243.462 280.009,243.881 280.008,244.111 279.963 C 244.340 279.919,244.108 279.884,243.596 279.886 C 243.083 279.887,242.896 279.923,243.179 279.966 M248.116 280.337 C 248.348 280.381,248.683 280.380,248.861 280.333 C 249.039 280.286,248.850 280.250,248.440 280.252 C 248.030 280.254,247.884 280.292,248.116 280.337 M250.538 280.523 C 250.770 280.568,251.105 280.566,251.283 280.519 C 251.461 280.473,251.272 280.436,250.862 280.438 C 250.452 280.440,250.306 280.478,250.538 280.523 M255.380 280.895 C 255.610 280.940,255.987 280.940,256.218 280.895 C 256.449 280.851,256.260 280.815,255.799 280.815 C 255.338 280.815,255.149 280.851,255.380 280.895 M260.133 281.270 C 260.416 281.313,260.835 281.312,261.065 281.268 C 261.294 281.223,261.062 281.188,260.550 281.190 C 260.037 281.191,259.850 281.227,260.133 281.270 M262.834 281.455 C 263.066 281.499,263.401 281.497,263.579 281.451 C 263.757 281.404,263.568 281.368,263.158 281.370 C 262.748 281.372,262.602 281.410,262.834 281.455 M267.862 281.827 C 268.093 281.871,268.470 281.871,268.701 281.827 C 268.931 281.782,268.742 281.746,268.281 281.746 C 267.820 281.746,267.632 281.782,267.862 281.827 M272.706 282.199 C 272.937 282.244,273.314 282.244,273.544 282.199 C 273.775 282.155,273.586 282.119,273.125 282.119 C 272.664 282.119,272.476 282.155,272.706 282.199 M277.364 282.572 C 277.594 282.617,277.972 282.617,278.202 282.572 C 278.433 282.528,278.244 282.491,277.783 282.491 C 277.322 282.491,277.133 282.528,277.364 282.572 M279.788 282.759 C 280.020 282.803,280.355 282.802,280.533 282.755 C 280.711 282.708,280.522 282.672,280.112 282.674 C 279.702 282.676,279.556 282.714,279.788 282.759 M284.443 283.131 C 284.674 283.175,285.051 283.175,285.282 283.131 C 285.512 283.087,285.324 283.050,284.863 283.050 C 284.401 283.050,284.213 283.087,284.443 283.131 M289.197 283.506 C 289.480 283.549,289.899 283.548,290.128 283.503 C 290.357 283.459,290.126 283.424,289.613 283.425 C 289.101 283.427,288.914 283.463,289.197 283.506 M291.989 283.687 C 292.168 283.734,292.462 283.734,292.641 283.687 C 292.820 283.640,292.673 283.602,292.315 283.602 C 291.956 283.602,291.810 283.640,291.989 283.687 M297.299 284.063 C 297.529 284.107,297.906 284.107,298.137 284.063 C 298.367 284.018,298.179 283.982,297.718 283.982 C 297.257 283.982,297.068 284.018,297.299 284.063 M306.523 284.810 C 306.806 284.853,307.226 284.852,307.455 284.807 C 307.684 284.763,307.452 284.728,306.940 284.730 C 306.428 284.731,306.240 284.767,306.523 284.810 M307.825 324.266 C 307.827 324.676,307.865 324.822,307.910 324.590 C 307.955 324.359,307.953 324.023,307.906 323.845 C 307.860 323.667,307.823 323.857,307.825 324.266 " stroke="none" fill="#1f9624" fill-rule="evenodd"></path></g></svg>